Coordinates
version=1
nRows=14
nColumns=36
inDegrees=yes

Units are S.I. units (second, meters, Newtons, ...)
If the header above contains a line with 'inDegrees', this indicates whether rotational values are in degrees (yes) or radians (no).

endheader
time	pelvis_tilt	pelvis_list	pelvis_rotation	pelvis_tx	pelvis_ty	pelvis_tz	hip_flexion_r	hip_adduction_r	hip_rotation_r	knee_angle_r	knee_angle_r_beta	ankle_angle_r	subtalar_angle_r	mtp_angle_r	hip_flexion_l	hip_adduction_l	hip_rotation_l	knee_angle_l	knee_angle_l_beta	ankle_angle_l	subtalar_angle_l	mtp_angle_l	lumbar_extension	lumbar_bending	lumbar_rotation	arm_flex_r	arm_add_r	arm_rot_r	elbow_flex_r	pro_sup_r	arm_flex_l	arm_add_l	arm_rot_l	elbow_flex_l	pro_sup_l
      5.25000000	    -26.23153270	      1.70492083	      0.31682175	      0.72702436	      0.79087218	      0.05796264	     75.48531018	    -18.25465915	     -3.40948281	     63.10527428	      1.10139481	     22.94510973	      9.10780130	     -7.49999987	     71.05185566	    -23.41391697	    -17.48112786	     66.53622070	      1.16127612	     23.12802939	      7.20855680	     -7.49999987	    -40.59985237	     -3.18315631	      6.56803891	     80.70492470	     14.94400266	     69.35749440	    129.26377256	     94.16843894	     99.73379562	     23.19153523	     76.13021650	    124.83061052	     93.44126683
      5.26666670	    -25.32333456	      1.73958304	      0.36487309	      0.73118011	      0.80450825	      0.06091366	     72.89515448	    -18.11491833	     -4.05457293	     60.76478794	      1.06054562	     22.12553803	      9.10811169	     -7.49999987	     68.38377333	    -23.13398172	    -18.36516325	     64.11384605	      1.11899771	     22.32151811	      7.83024067	     -7.49999987	    -40.05856824	     -3.21526716	      6.55935411	     80.00201398	     15.30301401	     69.05291761	    128.81957813	     94.12042366	     98.35314963	     23.18138860	     76.31270681	    125.13080291	     93.33738749
      5.28333330	    -24.71280951	      1.74440622	      0.34416599	      0.73122907	      0.81715750	      0.06080029	     70.40961301	    -17.83277620	     -4.57306434	     58.16637214	      1.01519471	     21.34204771	      9.07709802	     -7.49999987	     65.99519102	    -22.73191943	    -19.09439786	     61.61831282	      1.07544244	     21.54968508	      8.16565522	     -7.49999987	    -39.07764399	     -3.15312160	      6.67076530	     78.98857142	     15.37599848	     69.09067256	    128.44036232	     94.09130044	     97.02531478	     22.61957166	     76.13954113	    125.38979161	     93.18288822
      5.30000000	    -24.24045740	      1.65211637	      0.34135706	      0.73127292	      0.82877812	      0.05890456	     68.03830823	    -17.49588851	     -5.07491359	     55.36172135	      0.96624432	     20.37977591	      9.01996357	     -7.49999987	     63.81875460	    -22.19440178	    -19.66688431	     59.04123707	      1.03046398	     20.56889394	      8.28902585	     -7.49999987	    -38.05147447	     -2.96966678	      6.44329676	     77.52728326	     15.41674711	     68.64393084	    128.25935083	     94.00315114	     96.21039688	     22.24625098	     75.48493160	    125.69175792	     92.95748564
      5.31666670	    -23.57791540	      1.57727245	      0.29037498	      0.72678165	      0.83739135	      0.05539513	     65.69734355	    -17.15480391	     -5.31833014	     52.45987972	      0.91559763	     19.44112052	      8.74752892	     -7.49999987	     61.96303010	    -21.57039036	    -20.01938352	     56.87917154	      0.99272882	     19.88199109	      8.12005377	     -7.49999987	    -37.36369302	     -2.78202881	      6.25848202	     76.35515309	     15.92916390	     68.19772643	    128.69455342	     94.19140016	     96.01555860	     22.13785039	     74.56641655	    125.76905748	     92.72306738
      5.33333330	    -22.88496489	      1.50485402	      0.17575882	      0.73173156	      0.84979845	      0.05795356	     63.04941310	    -16.58602080	     -5.48533016	     49.41409946	      0.86243873	     18.50423748	      8.36254974	     -7.49999987	     59.92089056	    -20.98096009	    -20.14455360	     54.68293638	      0.95439728	     18.83565897	      7.69600968	     -7.49999987	    -36.38584186	     -2.64728509	      6.14338948	     74.95871749	     16.62455795	     68.43907894	    129.02110838	     94.37633387	     95.29678039	     21.94790681	     73.62114656	    125.88955401	     92.31327899
      5.35000000	    -22.11785684	      1.38961174	      0.50772362	      0.73255262	      0.86701170	      0.05730532	     59.78243602	    -16.32234564	     -6.05917272	     45.82076504	      0.79972322	     17.43464558	      7.96196235	     -7.49999987	     57.66484539	    -19.92923820	    -20.09213804	     51.99345354	      0.90745695	     17.41841088	      7.31126446	     -7.49999987	    -35.73004800	     -2.29938305	      6.50135601	     73.22793746	     16.42341788	     68.70299500	    129.58409269	     95.80609848	     94.27217390	     22.61123939	     74.51462533	    126.13113595	     90.59252655
      5.36666670	    -20.90671871	      1.31060669	      0.56663599	      0.73295055	      0.87548982	      0.05590417	     56.64144776	    -15.96226792	     -6.43695824	     42.86501777	      0.74813569	     16.36232708	      7.87207962	     -7.49999987	     55.19941268	    -19.01777993	    -19.71613205	     49.64666667	      0.86649780	     16.17822526	      6.80269739	     -7.49999987	    -34.99766881	     -1.92354952	      6.36084433	     72.34192779	     16.90517887	     69.30064745	    129.01439793	     94.19326802	     93.18864395	     22.49836508	     74.50150351	    126.40211747	     88.57674120
      5.38333330	    -19.72885307	      1.10242576	      0.50905411	      0.73351100	      0.88135032	      0.05586750	     53.94163302	    -15.48458239	     -6.76946050	     40.61758911	      0.70891066	     15.58844125	      7.56256828	     -7.49999987	     53.15971129	    -18.53425212	    -19.27134123	     48.10013954	      0.83950581	     15.45079912	      6.21953407	     -7.49999987	    -34.03284913	     -1.52022016	      6.40379077	     71.53134611	     17.35965630	     69.97591155	    128.41754445	     92.90867145	     92.43825885	     22.59777549	     74.50664677	    126.78112066	     87.16989689
      5.40000000	    -18.94141827	      1.03780484	      0.43041456	      0.73343615	      0.88412012	      0.05523846	     52.18878344	    -15.20082126	     -6.90095415	     39.08033561	      0.68208053	     14.95871283	      7.46021600	     -7.49999987	     51.66681673	    -18.09357224	    -18.95033068	     46.80380131	      0.81688044	     15.01718668	      5.83856425	     -7.49999987	    -32.53431199	     -1.46950600	      5.98958763	     70.50832880	     18.27036417	     69.71320715	    128.07051022	     91.94174888	     91.21007350	     22.63393947	     74.20212068	    126.75134930	     86.25138580
      5.41666670	    -17.96625779	      0.85391985	      0.56769776	      0.73903532	      0.89121703	      0.05833721	     50.13293584	    -14.90315560	     -7.18641888	     37.79343237	      0.65961983	     14.52668713	      7.34475878	     -7.49999987	     49.88891424	    -17.74690017	    -18.45451043	     45.57584506	      0.79544856	     14.33281381	      5.54096248	     -7.49999987	    -31.05270524	     -1.34168039	      5.88483021	     69.72076466	     18.56400658	     68.99435965	    127.74692250	     92.04626268	     90.16127608	     22.80570329	     73.29449480	    126.84664623	     86.10797201
      5.43333330	    -17.18834187	      0.74913842	      0.86214432	      0.74336231	      0.90048197	      0.05437671	     47.97791674	    -14.84039232	     -7.52473012	     36.11263605	      0.63028440	     13.90285583	      7.20268023	     -7.49999987	     47.95185266	    -17.03685613	    -18.07539436	     43.72997699	      0.76323208	     13.82757532	      5.16726007	     -7.49999987	    -29.56241510	     -1.11357598	      5.54070349	     68.91845886	     18.87643098	     68.19543654	    127.23155221	     92.09796830	     88.68003354	     22.79624625	     72.49545456	    126.50965677	     85.80154432
      5.45000000	    -16.69017703	      0.71163114	      1.26753816	      0.74418304	      0.91166224	      0.05408176	     45.92091177	    -14.80679555	     -7.96504977	     34.12396194	      0.59557549	     13.01858361	      7.14811391	     -7.49999987	     45.92898597	    -15.95367964	    -17.55596445	     41.05852209	      0.71660640	     12.90647595	      4.88560208	     -7.49999987	    -27.94188298	     -0.91168114	      5.16808377	     67.62633232	     18.69144794	     67.99709396	    127.35101092	     92.25548244	     87.27499978	     22.77955718	     72.07360400	    126.40105866	     85.48589641
      5.46666670	    -16.24006961	      0.59600233	      1.80649695	      0.74870646	      0.91735234	      0.05607487	     43.75501076	    -14.66058212	     -8.42106309	     31.91375102	      0.55700003	     12.43331655	      6.98367935	     -7.49999987	     43.92555468	    -14.99748801	    -16.79019821	     38.30570581	      0.66856069	     11.98722117	      4.77234462	     -7.49999987	    -26.37090157	     -0.62938563	      4.97152575	     65.64269709	     18.61988695	     67.71010270	    127.20757319	     91.91673779	     85.67624284	     22.71262372	     71.91025613	    126.27246569	     84.98087035
